<svg xmlns="http://www.w3.org/2000/svg" width="93.683" height="119.233" viewBox="0 0 99.148 126.188"><path d="m166.837 102.087-.852 4.038-.605 3.737-.399 3.461-.192 3.217-.013 2.972.178 2.77.33 2.553.495 2.365.619 2.222.743 2.062.866 1.933.948 1.818 1.045 1.73 1.114 1.66 1.183 1.6 1.223 1.559 2.516 3.072 2.558 3.13 1.265 1.63 1.224 1.702 1.168 1.79 1.128 1.903 1.045 2.005.962 2.164.866 2.308.757 2.496.646 2.683.495 2.899.344 3.116.192 3.375.028 3.448-.11 3.303-.234 3.188-.357 3.043-.495 2.929-.605 2.798-.73 2.669-.838 2.553-.949 2.438-1.058 2.308-1.169 2.207-1.251 2.077-1.375 1.962-1.444 1.846-1.554 1.745-1.636 1.616-1.719 1.515-1.787 1.413-1.884 1.298-1.952 1.198-2.008 1.096-2.09.995-2.158.88-2.2.794-2.269.692-2.323.591-2.38.505-2.405.404-2.461.318-2.503.216-2.544.13-2.57.043-2.572-.072-2.53-.217-2.502-.36-2.461-.49-2.42-.62-2.379-.765-2.324-.88-2.268-1.01-2.228-1.125-2.159-1.24-2.09-1.342-2.034-1.472-1.967-1.558-1.897-1.658-1.815-1.775-1.746-1.846-1.65-1.947-1.581-2.034-1.485-2.12-1.403-2.208-1.306-2.264-1.21-2.352-1.114-2.409-1.003-2.48-.894-2.54-.784-2.61-.687-2.655-.55-2.711-.454-2.741-.316-2.799-.193-2.841-.068-2.885.068-2.914.193-2.957.33-2.986.467-3.015.592-3.015.742-3.043.88-3.03 1.031-3.014 1.169-3 1.32-2.972 1.457-2.928 1.623-2.885 1.773-2.828 1.925-2.755 2.09-2.697 2.242-2.611 2.406-2.51 2.57-2.423 2.737-2.308 2.901-2.207 3.08-2.063 3.245-1.933 3.424-1.803 3.602-1.645 3.781-1.47 3.96-1.314 4.139-1.14 4.33-.937 4.51-.764 4.703-.548 4.895-.332z" style="fill:#0093dd;fill-opacity:1;fill-rule:evenodd;stroke:none;stroke-width:1.37544" transform="translate(-89.566 -102.087)"/><path d="m136.918 132.58.303 4.097.48 3.765.647 3.448.811 3.144.935 2.87 1.073 2.626 1.182 2.366 1.293 2.15 1.388 1.947 1.472 1.76 1.526 1.586 1.595 1.443 1.636 1.298 1.664 1.197 1.69 1.096 1.706 1.01 1.677.967 1.678.908 1.65.895 1.608.88 1.54.894 1.5.923 1.402.981 1.32 1.039 1.21 1.125 1.113 1.226.976 1.341.84 1.486.687 1.645.522 1.817.358 2.02.165 2.221.013 2.294-.07 2.207-.15 2.106-.248 2.033-.33 1.948-.399 1.875-.48 1.774-.565 1.702-.632 1.616-.701 1.543-.784 1.472-.839 1.385-.907 1.298-.963 1.24-1.03 1.154-1.087 1.082-1.155 1.01-1.196.938-1.251.865-1.293.808-1.347.721-1.39.664-1.429.591-1.471.52-1.513.46-1.553.405-1.582.332-1.608.274-1.636.202-1.664.144-1.691.086-1.705.03-1.719-.044-1.691-.144-1.664-.245-1.65-.318-1.609-.418-1.58-.505-1.54-.591-1.527-.678-1.471-.736-1.444-.837-1.389-.894-1.36-.98-1.307-1.04-1.265-1.11-1.21-1.169-1.155-1.24-1.114-1.298-1.045-1.356-.99-1.414-.934-1.457-.867-1.514-.81-1.558-.73-1.616-.673-1.644-.605-1.702-.523-1.731-.454-1.775-.37-1.803-.29-1.832-.22-1.86-.123-1.89-.042-1.919.028-1.933.082-1.932.152-1.948.206-1.947.261-1.948.316-1.932.372-1.948.44-1.933.48-1.918.537-1.919.605-1.89.66-1.89.701-1.86.77-1.832.811-1.817.88-1.79.922-1.759.99-1.745 1.03-1.688 1.087-1.673 1.141-1.616 1.183-1.587 1.25-1.543 1.293-1.5 1.348-1.457 1.402-1.4 1.444-1.34 1.499-1.3 1.553-1.24 1.595-1.168 1.65-1.125z" style="fill:#fff;fill-opacity:1;fill-rule:evenodd;stroke:none;stroke-width:1.37544" transform="translate(-89.566 -102.087)"/></svg>