<?xml version="1.0" encoding="UTF-8" standalone="no"?>
<!-- Created with Inkscape (http://www.inkscape.org/) -->

<svg
   width="93.683228"
   height="119.23308"
   viewBox="0 0 99.148077 126.18834"
   version="1.1"
   id="svg5"
   inkscape:export-filename="C:\Users\dario\Desktop\dphelper_manager_48.png"
   inkscape:export-xdpi="9.000001"
   inkscape:export-ydpi="9.000001"
   inkscape:version="1.1.1 (3bf5ae0d25, 2021-09-20)"
   sodipodi:docname="logo.svg"
   xmlns:inkscape="http://www.inkscape.org/namespaces/inkscape"
   xmlns:sodipodi="http://sodipodi.sourceforge.net/DTD/sodipodi-0.dtd"
   xmlns="http://www.w3.org/2000/svg"
   xmlns:svg="http://www.w3.org/2000/svg">
  <sodipodi:namedview
     id="namedview7"
     pagecolor="#ffffff"
     bordercolor="#666666"
     borderopacity="1.0"
     inkscape:pageshadow="2"
     inkscape:pageopacity="0.0"
     inkscape:pagecheckerboard="0"
     inkscape:document-units="mm"
     showgrid="false"
     inkscape:zoom="0.7500982"
     inkscape:cx="556.59379"
     inkscape:cy="359.95287"
     inkscape:window-width="1920"
     inkscape:window-height="1027"
     inkscape:window-x="-8"
     inkscape:window-y="-8"
     inkscape:window-maximized="1"
     inkscape:current-layer="layer1"
     scale-x="4"
     units="px" />
  <defs
     id="defs2">
    <pattern
       id="WMFhbasepattern"
       patternUnits="userSpaceOnUse"
       width="6"
       height="6"
       x="0"
       y="0" />
  </defs>
  <g
     inkscape:label="Layer 1"
     inkscape:groupmode="layer"
     id="layer1"
     transform="translate(-89.565622,-102.08653)">
    <path
       style="fill:#0093dd;fill-opacity:1;fill-rule:evenodd;stroke:none;stroke-width:1.37544"
       d="m 166.83728,102.08653 -0.85247,4.03896 -0.60497,3.73603 -0.39875,3.46197 -0.19249,3.21673 -0.013,2.97152 0.17875,2.76958 0.32997,2.55319 0.495,2.36567 0.61873,2.22142 0.74246,2.06276 0.86623,1.93293 0.94873,1.81752 1.04496,1.73099 1.11372,1.65884 1.18245,1.60117 1.22373,1.55789 2.51617,3.07247 2.55742,3.1302 1.26496,1.63 1.22372,1.70213 1.1687,1.78869 1.12747,1.90408 1.04498,2.00504 0.96245,2.16374 0.86623,2.30797 0.75623,2.4955 0.64622,2.68301 0.49499,2.8994 0.34374,3.11576 0.19249,3.37541 0.0276,3.44755 -0.10994,3.30327 -0.23374,3.1879 -0.3575,3.04363 -0.49498,2.92826 -0.60498,2.79841 -0.72874,2.6686 -0.83871,2.55318 -0.94874,2.4378 -1.05871,2.30798 -1.1687,2.20701 -1.25122,2.07718 -1.37495,1.96176 -1.4437,1.84639 -1.55372,1.7454 -1.63621,1.61559 -1.71869,1.51461 -1.78745,1.41363 -1.88368,1.29823 -1.95243,1.19727 -2.00745,1.09629 -2.08993,0.99531 -2.15869,0.87991 -2.19992,0.79337 -2.26868,0.69238 -2.32368,0.59143 -2.37868,0.50486 -2.40618,0.4039 -2.46116,0.31735 -2.50244,0.21636 -2.54366,0.12976 -2.57118,0.0432 -2.57116,-0.0721 -2.52993,-0.21637 -2.50241,-0.36062 -2.46119,-0.49046 -2.41992,-0.62025 -2.37867,-0.76453 -2.32368,-0.87992 -2.26868,-1.00973 -2.22743,-1.12513 -2.15869,-1.24055 -2.08993,-1.34151 -2.03495,-1.47133 -1.96618,-1.55788 -1.89744,-1.65885 -1.81494,-1.77427 -1.74621,-1.84636 -1.64995,-1.94737 -1.58119,-2.0339 -1.484949,-2.12044 -1.402457,-2.207 -1.30622,-2.26471 -1.209952,-2.35124 -1.113716,-2.40896 -1.003724,-2.48106 -0.893717,-2.53878 -0.783726,-2.61089 -0.687489,-2.65416 -0.549972,-2.71188 -0.453736,-2.74072 -0.316251,-2.79842 -0.192489,-2.84169 -0.06869,-2.88496 0.06869,-2.91383 0.192489,-2.95708 0.329989,-2.98596 0.467491,-3.01477 0.591237,-3.0148 0.742477,-3.04363 0.879962,-3.02922 1.031219,-3.01479 1.168719,-3.00038 1.319959,-2.97151 1.45746,-2.92824 1.622439,-2.88498 1.773697,-2.82726 1.92495,-2.75515 2.08993,-2.69744 2.24119,-2.6109 2.40616,-2.50992 2.57118,-2.42336 2.73617,-2.30798 2.90115,-2.207 3.07991,-2.06275 3.2449,-1.93294 3.42364,-1.8031 3.6024,-1.64443 3.78112,-1.47133 3.95988,-1.31267 4.13863,-1.13955 4.33111,-0.93762 4.50985,-0.76452 4.70236,-0.54814 4.89486,-0.33177 z"
       id="path30" />
    <path
       style="fill:#ffffff;fill-opacity:1;fill-rule:evenodd;stroke:none;stroke-width:1.37544"
       d="m 136.91822,132.58065 0.30249,4.09665 0.48123,3.76489 0.64623,3.44753 0.81123,3.14461 0.93497,2.87054 1.07246,2.62532 1.18246,2.36568 1.29247,2.1493 1.3887,1.94735 1.47122,1.75984 1.5262,1.58673 1.59494,1.44249 1.6362,1.29823 1.6637,1.19725 1.6912,1.09629 1.70495,1.00975 1.67744,0.96645 1.67745,0.90877 1.64996,0.89434 1.60869,0.87991 1.53995,0.89435 1.4987,0.92318 1.40247,0.98089 1.31994,1.03859 1.20997,1.12515 1.11373,1.22611 0.9762,1.34151 0.83873,1.48575 0.68749,1.64442 0.52248,1.81755 0.35748,2.01946 0.165,2.22143 0.013,2.29355 -0.0687,2.20701 -0.15119,2.10602 -0.24747,2.0339 -0.33001,1.94735 -0.39873,1.87524 -0.48123,1.77425 -0.56374,1.70212 -0.63247,1.61559 -0.70123,1.54345 -0.78373,1.47135 -0.83873,1.38478 -0.90747,1.29823 -0.96246,1.24053 -1.03122,1.15399 -1.08623,1.08187 -1.15495,1.00974 -1.19622,0.93761 -1.25121,0.86549 -1.29247,0.8078 -1.34745,0.72123 -1.3887,0.66355 -1.42997,0.59142 -1.4712,0.51929 -1.51245,0.4616 -1.55371,0.40388 -1.58119,0.33178 -1.6087,0.27407 -1.63621,0.20194 -1.66369,0.14421 -1.6912,0.0866 -1.70495,0.0289 -1.71869,-0.0432 -1.6912,-0.14421 -1.6637,-0.24523 -1.64995,-0.31734 -1.6087,-0.41832 -1.58121,-0.50488 -1.53994,-0.59141 -1.5262,-0.67797 -1.47122,-0.73566 -1.4437,-0.83665 -1.3887,-0.89434 -1.36121,-0.98089 -1.30621,-1.03859 -1.26497,-1.11071 -1.20995,-1.16841 -1.15496,-1.24053 -1.11372,-1.29823 -1.04497,-1.35595 -0.98997,-1.41363 -0.93497,-1.45691 -0.86622,-1.5146 -0.81124,-1.55789 -0.72872,-1.61559 -0.67373,-1.64442 -0.60498,-1.70213 -0.52248,-1.73099 -0.45373,-1.77424 -0.37124,-1.80311 -0.28874,-1.83196 -0.22,-1.86081 -0.12375,-1.88964 -0.0413,-1.91851 0.0275,-1.93292 0.0825,-1.93293 0.15119,-1.94736 0.20625,-1.94734 0.26124,-1.94737 0.31624,-1.93292 0.37124,-1.94735 0.43998,-1.93294 0.48125,-1.9185 0.53623,-1.91851 0.60497,-1.88964 0.65998,-1.88965 0.70123,-1.8608 0.76997,-1.83197 0.81124,-1.81752 0.87996,-1.78869 0.92123,-1.75982 0.98997,-1.74541 1.03122,-1.68771 1.08622,-1.67328 1.14121,-1.61559 1.18246,-1.58672 1.25121,-1.54345 1.29247,-1.50019 1.34745,-1.45691 1.40246,-1.39921 1.44371,-1.34151 1.4987,-1.29823 1.5537,-1.24054 1.59495,-1.16842 1.64995,-1.12513 z"
       id="path32" />
  </g>
</svg>
